<?xml version="1.0" encoding="utf-8"?>
<!-- Generator: Adobe Illustrator 16.0.0, SVG Export Plug-In . SVG Version: 6.00 Build 0)  -->
<!DOCTYPE svg PUBLIC "-//W3C//DTD SVG 1.1//EN" "http://www.w3.org/Graphics/SVG/1.1/DTD/svg11.dtd">
<svg version="1.1" id="Layer_1" xmlns="http://www.w3.org/2000/svg" xmlns:xlink="http://www.w3.org/1999/xlink" x="0px" y="0px"
	 width="2552px" height="324px" viewBox="0 0 2552 324" enable-background="new 0 0 2552 324" xml:space="preserve">
<g>
	<path fill="#FFFFFF" d="M751.01,126.31l-49.68,116.84c-1.074,2.912-2.722,5.175-4.945,6.784c-2.224,1.61-4.639,2.415-7.245,2.415
		c-4.14,0-7.207-1.149-9.2-3.449c-1.994-2.301-2.99-5.138-2.99-8.511c0-1.38,0.23-2.837,0.69-4.37l57.27-137.54
		c1.226-3.067,3.105-5.443,5.635-7.13c2.53-1.687,5.251-2.377,8.165-2.07c2.76,0,5.328,0.805,7.705,2.415
		c2.376,1.61,4.101,3.872,5.175,6.785l56.58,134.78c0.766,1.993,1.15,3.833,1.15,5.521c0,4.14-1.342,7.437-4.025,9.89
		c-2.684,2.453-5.635,3.68-8.855,3.68c-2.76,0-5.252-0.843-7.475-2.529c-2.224-1.688-3.949-3.987-5.175-6.9l-49.45-115.23
		L751.01,126.31L751.01,126.31z M708.46,215.09l12.65-26.45h62.1l4.37,26.45H708.46L708.46,215.09z"/>
	<path fill="#FFFFFF" d="M852.67,251.2c-3.987,0-7.284-1.342-9.89-4.025c-2.607-2.683-3.91-6.018-3.91-10.005v-94.99
		c0-3.987,1.303-7.322,3.91-10.005c2.606-2.683,5.903-4.025,9.89-4.025c3.986,0,7.283,1.342,9.89,4.025
		c2.606,2.683,3.91,6.018,3.91,10.005v21.62l-1.61-15.41c1.687-3.68,3.871-6.938,6.555-9.775c2.683-2.837,5.711-5.213,9.085-7.13
		c3.373-1.917,6.976-3.335,10.81-4.255c3.833-0.92,7.666-1.38,11.5-1.38c4.6,0,8.471,1.303,11.615,3.91
		c3.143,2.607,4.715,5.673,4.715,9.2c0,5.06-1.304,8.702-3.91,10.925c-2.607,2.223-5.444,3.335-8.51,3.335
		c-2.914,0-5.559-0.537-7.935-1.61c-2.377-1.073-5.099-1.61-8.165-1.61c-2.76,0-5.559,0.652-8.395,1.955
		c-2.837,1.303-5.444,3.335-7.82,6.095c-2.377,2.76-4.294,6.172-5.75,10.235c-1.457,4.063-2.185,8.854-2.185,14.375v54.51
		c0,3.987-1.304,7.322-3.91,10.005C859.953,249.858,856.656,251.2,852.67,251.2L852.67,251.2z"/>
	<path fill="#FFFFFF" d="M972.04,125.85c8.74,0,16.368,0.92,22.885,2.76c6.516,1.84,11.576,4.408,15.18,7.705
		c3.603,3.297,5.405,7.245,5.405,11.845c0,3.067-0.92,5.942-2.76,8.625c-1.84,2.683-4.524,4.025-8.05,4.025
		c-2.454,0-4.485-0.345-6.095-1.035c-1.61-0.69-3.029-1.572-4.255-2.645c-1.227-1.073-2.684-2.07-4.37-2.99
		c-1.534-0.92-3.872-1.648-7.015-2.185c-3.144-0.537-5.482-0.805-7.015-0.805c-7.82,0-14.452,1.687-19.895,5.06
		c-5.444,3.373-9.622,7.935-12.535,13.685c-2.914,5.75-4.37,12.383-4.37,19.896c0,7.36,1.495,13.915,4.485,19.665
		c2.99,5.75,7.13,10.312,12.42,13.685s11.385,5.061,18.285,5.061c3.833,0,7.13-0.23,9.89-0.69c2.76-0.46,5.06-1.149,6.9-2.069
		c2.146-1.228,4.063-2.53,5.75-3.91c1.686-1.38,4.216-2.07,7.59-2.07c3.986,0,7.053,1.265,9.2,3.795
		c2.146,2.53,3.22,5.635,3.22,9.315c0,3.833-2.147,7.321-6.44,10.465c-4.294,3.143-9.929,5.673-16.905,7.59
		c-6.977,1.917-14.529,2.875-22.655,2.875c-12.114,0-22.617-2.798-31.51-8.395c-8.894-5.598-15.755-13.226-20.585-22.886
		c-4.83-9.66-7.245-20.47-7.245-32.43c0-12.573,2.568-23.652,7.705-33.235c5.136-9.583,12.266-17.097,21.39-22.54
		C949.768,128.572,960.233,125.85,972.04,125.85L972.04,125.85z"/>
	<path fill="#FFFFFF" d="M1160.87,90.2c3.68,0,6.67,1.227,8.97,3.68c2.3,2.453,3.45,5.52,3.45,9.2v134.09
		c0,3.987-1.342,7.322-4.025,10.005c-2.684,2.684-6.019,4.025-10.005,4.025c-1.994,0-4.025-0.345-6.095-1.035
		s-3.642-1.648-4.715-2.875l-90.39-114.77l5.98-3.68v109.48c0,3.68-1.189,6.747-3.565,9.199c-2.377,2.453-5.482,3.681-9.315,3.681
		c-3.68,0-6.67-1.228-8.97-3.681c-2.3-2.452-3.45-5.52-3.45-9.199V104.23c0-3.987,1.341-7.322,4.025-10.005
		c2.683-2.683,6.018-4.025,10.005-4.025c2.146,0,4.37,0.422,6.67,1.265c2.3,0.843,3.986,2.108,5.06,3.795l87.63,111.78l-3.91,2.76
		V103.08c0-3.68,1.15-6.747,3.45-9.2C1153.97,91.427,1157.036,90.2,1160.87,90.2L1160.87,90.2z"/>
	<path fill="#FFFFFF" d="M1260,253.5c-13.034,0-24.342-2.722-33.925-8.165c-9.584-5.443-16.944-12.842-22.08-22.195
		c-5.137-9.353-7.705-19.933-7.705-31.739c0-13.801,2.798-25.568,8.395-35.306c5.596-9.737,12.918-17.212,21.965-22.425
		c9.046-5.213,18.63-7.82,28.75-7.82c7.82,0,15.218,1.61,22.195,4.83c6.976,3.22,13.148,7.628,18.515,13.225
		c5.366,5.597,9.621,12.075,12.765,19.435c3.143,7.36,4.715,15.18,4.715,23.46c-0.154,3.681-1.61,6.67-4.37,8.97
		c-2.76,2.301-5.98,3.45-9.66,3.45h-87.86l-6.9-23h84.41l-5.061,4.601v-6.21c-0.307-4.447-1.879-8.434-4.715-11.96
		c-2.837-3.527-6.364-6.325-10.58-8.396c-4.217-2.07-8.702-3.105-13.455-3.105c-4.6,0-8.894,0.613-12.88,1.84
		c-3.987,1.227-7.437,3.297-10.35,6.21s-5.214,6.823-6.9,11.729c-1.687,4.907-2.53,11.117-2.53,18.63
		c0,8.28,1.725,15.296,5.175,21.046c3.45,5.75,7.896,10.119,13.34,13.109c5.443,2.99,11.231,4.485,17.365,4.485
		c5.673,0,10.196-0.46,13.57-1.38c3.373-0.92,6.095-2.032,8.165-3.335c2.07-1.304,3.948-2.415,5.635-3.335
		c2.76-1.381,5.366-2.07,7.82-2.07c3.373,0,6.171,1.15,8.395,3.45c2.223,2.3,3.335,4.982,3.335,8.05c0,4.14-2.147,7.896-6.44,11.27
		c-3.987,3.373-9.584,6.325-16.79,8.855C1275.103,252.235,1267.666,253.5,1260,253.5L1260,253.5z"/>
	<path fill="#FFFFFF" d="M1330.61,130.45h54.51c3.68,0,6.746,1.227,9.2,3.68c2.453,2.453,3.681,5.52,3.681,9.2
		c0,3.527-1.228,6.478-3.681,8.855c-2.454,2.377-5.52,3.565-9.2,3.565h-54.51c-3.68,0-6.747-1.227-9.2-3.68
		c-2.454-2.453-3.68-5.52-3.68-9.2c0-3.527,1.226-6.478,3.68-8.855C1323.863,131.638,1326.93,130.45,1330.61,130.45L1330.61,130.45z
		 M1355.22,101.7c3.986,0,7.245,1.342,9.775,4.025s3.795,6.018,3.795,10.005v102.35c0,2.146,0.421,3.91,1.265,5.29
		c0.843,1.38,1.993,2.377,3.45,2.99c1.456,0.612,3.028,0.92,4.715,0.92c1.84,0,3.526-0.346,5.06-1.035
		c1.533-0.69,3.296-1.035,5.29-1.035c2.146,0,4.101,0.997,5.865,2.99c1.763,1.993,2.645,4.753,2.645,8.28
		c0,4.293-2.339,7.819-7.015,10.579c-4.677,2.761-9.699,4.141-15.064,4.141c-3.22,0-6.785-0.269-10.695-0.806
		c-3.91-0.536-7.59-1.84-11.04-3.909c-3.45-2.07-6.325-5.252-8.625-9.545s-3.45-10.197-3.45-17.71v-103.5
		c0-3.987,1.341-7.322,4.025-10.005C1347.898,103.042,1351.233,101.7,1355.22,101.7L1355.22,101.7z"/>
	<path fill="#FFFFFF" d="M1495.061,237.17c0,3.987-1.457,7.322-4.371,10.005c-2.914,2.684-6.287,4.025-10.119,4.025
		c-4.295,0-7.744-1.342-10.35-4.025c-2.607-2.683-3.91-6.018-3.91-10.005V104.23c0-3.987,1.379-7.322,4.139-10.005
		c2.762-2.683,6.287-4.025,10.58-4.025c3.682,0,6.939,1.342,9.775,4.025s4.256,6.018,4.256,10.005V237.17L1495.061,237.17z"/>
	<path fill="#FFFFFF" d="M1585.449,125.85c11.348,0,19.973,2.377,25.875,7.13c5.904,4.753,9.967,11.078,12.191,18.975
		c2.223,7.897,3.334,16.675,3.334,26.335v58.88c0,3.987-1.303,7.322-3.91,10.005c-2.605,2.684-5.904,4.025-9.889,4.025
		c-3.988,0-7.285-1.342-9.891-4.025c-2.607-2.683-3.91-6.018-3.91-10.005v-58.88c0-5.06-0.652-9.622-1.955-13.685
		c-1.305-4.063-3.643-7.322-7.016-9.775s-8.203-3.68-14.49-3.68c-6.133,0-11.309,1.227-15.523,3.68
		c-4.217,2.453-7.438,5.712-9.66,9.775c-2.225,4.063-3.336,8.625-3.336,13.685v58.88c0,3.987-1.303,7.322-3.91,10.005
		c-2.605,2.684-5.904,4.025-9.889,4.025c-3.988,0-7.285-1.342-9.891-4.025c-2.607-2.683-3.91-6.018-3.91-10.005v-94.99
		c0-3.987,1.303-7.322,3.91-10.005c2.605-2.683,5.902-4.025,9.891-4.025c3.984,0,7.283,1.342,9.889,4.025
		c2.607,2.683,3.91,6.018,3.91,10.005v9.89l-3.449-0.69c1.379-2.607,3.373-5.405,5.98-8.395c2.605-2.99,5.672-5.788,9.199-8.395
		c3.525-2.607,7.514-4.715,11.961-6.325C1575.406,126.655,1580.236,125.85,1585.449,125.85L1585.449,125.85z"/>
	<path fill="#FFFFFF" d="M1717.01,125.85c11.346,0,19.971,2.377,25.875,7.13c5.902,4.753,9.967,11.078,12.189,18.975
		c2.225,7.897,3.336,16.675,3.336,26.335v58.88c0,3.987-1.305,7.322-3.91,10.005c-2.607,2.684-5.904,4.025-9.891,4.025
		s-7.283-1.342-9.889-4.025c-2.607-2.683-3.91-6.018-3.91-10.005v-58.88c0-5.06-0.652-9.622-1.955-13.685
		c-1.305-4.063-3.643-7.322-7.016-9.775s-8.203-3.68-14.49-3.68c-6.133,0-11.309,1.227-15.525,3.68s-7.436,5.712-9.66,9.775
		c-2.223,4.063-3.334,8.625-3.334,13.685v58.88c0,3.987-1.305,7.322-3.91,10.005c-2.607,2.684-5.904,4.025-9.891,4.025
		s-7.283-1.342-9.889-4.025c-2.607-2.683-3.91-6.018-3.91-10.005v-94.99c0-3.987,1.303-7.322,3.91-10.005
		c2.605-2.683,5.902-4.025,9.889-4.025s7.283,1.342,9.891,4.025c2.605,2.683,3.91,6.018,3.91,10.005v9.89l-3.449-0.69
		c1.379-2.607,3.373-5.405,5.979-8.395c2.607-2.99,5.674-5.788,9.201-8.395c3.525-2.607,7.512-4.715,11.959-6.325
		C1706.967,126.655,1711.797,125.85,1717.01,125.85L1717.01,125.85z"/>
	<path fill="#FFFFFF" d="M1901.01,189.79c0,12.573-2.799,23.652-8.395,33.235c-5.598,9.583-13.109,17.058-22.541,22.425
		c-9.43,5.367-19.971,8.05-31.625,8.05c-11.652,0-22.193-2.683-31.625-8.05c-9.43-5.367-16.943-12.842-22.539-22.425
		c-5.598-9.583-8.395-20.662-8.395-33.235s2.797-23.652,8.395-33.235c5.596-9.583,13.109-17.097,22.539-22.54
		c9.432-5.443,19.973-8.165,31.625-8.165c11.654,0,22.195,2.722,31.625,8.165c9.432,5.443,16.943,12.957,22.541,22.54
		C1898.211,166.138,1901.01,177.217,1901.01,189.79L1901.01,189.79z M1873.41,189.79c0-7.82-1.572-14.605-4.715-20.355
		c-3.145-5.75-7.359-10.234-12.65-13.455c-5.289-3.22-11.154-4.83-17.596-4.83c-6.439,0-12.305,1.61-17.594,4.83
		c-5.291,3.22-9.508,7.705-12.65,13.455c-3.145,5.75-4.715,12.535-4.715,20.355c0,7.667,1.57,14.375,4.715,20.125
		c3.143,5.75,7.359,10.235,12.65,13.455c5.289,3.22,11.154,4.83,17.594,4.83c6.441,0,12.307-1.61,17.596-4.83
		c5.291-3.22,9.506-7.705,12.65-13.455C1871.838,204.165,1873.41,197.457,1873.41,189.79L1873.41,189.79z"/>
	<path fill="#FFFFFF" d="M1922.631,128.15c2.912,0,5.596,0.728,8.049,2.185s4.293,3.642,5.52,6.555l33.811,77.28l-5.061,2.3
		l34.5-79.35c2.607-6.133,6.67-9.047,12.191-8.74c3.832,0,6.938,1.188,9.314,3.565s3.564,5.328,3.564,8.855
		c0,1.073-0.191,2.223-0.574,3.45c-0.385,1.227-0.805,2.377-1.266,3.45l-43.01,94.76c-2.453,5.521-6.363,8.433-11.73,8.74
		c-2.914,0.46-5.711-0.077-8.395-1.61s-4.715-3.91-6.096-7.13l-42.779-94.76c-0.307-0.767-0.652-1.763-1.035-2.99
		s-0.574-2.683-0.574-4.37c0-2.76,1.225-5.482,3.68-8.165C1915.193,129.492,1918.49,128.15,1922.631,128.15L1922.631,128.15z"/>
	<path fill="#FFFFFF" d="M2135.381,125.85c3.984,0,7.281,1.303,9.889,3.91c2.605,2.607,3.91,5.98,3.91,10.12v97.29
		c0,3.987-1.305,7.322-3.91,10.005c-2.607,2.684-5.904,4.025-9.889,4.025c-3.988,0-7.285-1.342-9.891-4.025
		c-2.607-2.683-3.91-6.018-3.91-10.005V225.9l5.061,2.069c0,1.993-1.074,4.408-3.221,7.245s-5.061,5.635-8.74,8.396
		c-3.68,2.76-8.012,5.098-12.994,7.015c-4.984,1.917-10.389,2.875-16.215,2.875c-10.58,0-20.164-2.722-28.75-8.165
		c-8.588-5.443-15.373-12.957-20.355-22.54c-4.984-9.583-7.475-20.585-7.475-33.005c0-12.573,2.49-23.652,7.475-33.235
		c4.982-9.583,11.691-17.097,20.125-22.54c8.434-5.443,17.785-8.165,28.061-8.165c6.592,0,12.648,0.997,18.17,2.99
		c5.52,1.993,10.311,4.523,14.375,7.59c4.063,3.067,7.205,6.172,9.43,9.315c2.223,3.143,3.334,5.788,3.334,7.935l-8.279,2.99v-16.79
		c0-3.987,1.303-7.322,3.91-10.005C2128.096,127.192,2131.393,125.85,2135.381,125.85L2135.381,125.85z M2088.92,228.2
		c6.746,0,12.65-1.688,17.711-5.061c5.059-3.373,9.008-7.973,11.844-13.8s4.256-12.343,4.256-19.55c0-7.36-1.42-13.953-4.256-19.78
		s-6.785-10.427-11.844-13.8c-5.061-3.373-10.965-5.06-17.711-5.06c-6.594,0-12.42,1.687-17.48,5.06
		c-5.059,3.373-9.008,7.973-11.844,13.8c-2.838,5.827-4.256,12.42-4.256,19.78c0,7.207,1.418,13.723,4.256,19.55
		c2.836,5.827,6.785,10.427,11.844,13.8C2076.5,226.513,2082.326,228.2,2088.92,228.2L2088.92,228.2z"/>
	<path fill="#FFFFFF" d="M2174.02,130.45h54.51c3.68,0,6.746,1.227,9.201,3.68c2.453,2.453,3.68,5.52,3.68,9.2
		c0,3.527-1.227,6.478-3.68,8.855c-2.455,2.377-5.521,3.565-9.201,3.565h-54.51c-3.68,0-6.746-1.227-9.199-3.68
		c-2.455-2.453-3.68-5.52-3.68-9.2c0-3.527,1.225-6.478,3.68-8.855C2167.273,131.638,2170.34,130.45,2174.02,130.45L2174.02,130.45z
		 M2198.629,101.7c3.986,0,7.246,1.342,9.775,4.025c2.531,2.683,3.795,6.018,3.795,10.005v102.35c0,2.146,0.422,3.91,1.266,5.29
		s1.992,2.377,3.451,2.99c1.455,0.612,3.027,0.92,4.715,0.92c1.84,0,3.525-0.346,5.059-1.035c1.533-0.69,3.297-1.035,5.291-1.035
		c2.145,0,4.102,0.997,5.865,2.99c1.762,1.993,2.645,4.753,2.645,8.28c0,4.293-2.34,7.819-7.016,10.579
		c-4.676,2.761-9.699,4.141-15.064,4.141c-3.221,0-6.785-0.269-10.695-0.806c-3.91-0.536-7.59-1.84-11.039-3.909
		c-3.451-2.07-6.326-5.252-8.625-9.545c-2.301-4.293-3.451-10.197-3.451-17.71v-103.5c0-3.987,1.342-7.322,4.025-10.005
		S2194.643,101.7,2198.629,101.7L2198.629,101.7z"/>
	<path fill="#FFFFFF" d="M2271.311,237.17c0,3.987-1.305,7.322-3.91,10.005c-2.607,2.684-5.904,4.025-9.891,4.025
		s-7.283-1.342-9.891-4.025c-2.605-2.683-3.908-6.018-3.908-10.005v-94.99c0-3.987,1.303-7.322,3.908-10.005
		c2.607-2.683,5.904-4.025,9.891-4.025s7.283,1.342,9.891,4.025c2.605,2.683,3.91,6.018,3.91,10.005V237.17L2271.311,237.17z
		 M2257.279,113.2c-5.213,0-8.893-0.843-11.039-2.53s-3.221-4.677-3.221-8.97v-4.37c0-4.447,1.189-7.475,3.566-9.085
		c2.375-1.61,6.018-2.415,10.924-2.415c5.367,0,9.123,0.843,11.27,2.53s3.221,4.677,3.221,8.97v4.37c0,4.447-1.15,7.475-3.449,9.085
		C2266.25,112.395,2262.492,113.2,2257.279,113.2L2257.279,113.2z"/>
	<path fill="#FFFFFF" d="M2410.92,189.79c0,12.573-2.799,23.652-8.395,33.235c-5.598,9.583-13.109,17.058-22.541,22.425
		c-9.43,5.367-19.971,8.05-31.625,8.05s-22.195-2.683-31.625-8.05s-16.943-12.842-22.539-22.425
		c-5.598-9.583-8.395-20.662-8.395-33.235s2.797-23.652,8.395-33.235c5.596-9.583,13.109-17.097,22.539-22.54
		c9.43-5.443,19.971-8.165,31.625-8.165s22.195,2.722,31.625,8.165c9.432,5.443,16.943,12.957,22.541,22.54
		C2408.121,166.138,2410.92,177.217,2410.92,189.79L2410.92,189.79z M2383.32,189.79c0-7.82-1.572-14.605-4.715-20.355
		c-3.145-5.75-7.361-10.234-12.65-13.455c-5.291-3.22-11.154-4.83-17.596-4.83c-6.439,0-12.305,1.61-17.594,4.83
		c-5.291,3.22-9.508,7.705-12.65,13.455c-3.145,5.75-4.715,12.535-4.715,20.355c0,7.667,1.57,14.375,4.715,20.125
		c3.143,5.75,7.359,10.235,12.65,13.455c5.289,3.22,11.154,4.83,17.594,4.83c6.441,0,12.305-1.61,17.596-4.83
		c5.289-3.22,9.506-7.705,12.65-13.455C2381.748,204.165,2383.32,197.457,2383.32,189.79L2383.32,189.79z"/>
	<path fill="#FFFFFF" d="M2493.949,125.85c11.346,0,19.971,2.377,25.875,7.13s9.967,11.078,12.191,18.975
		c2.223,7.897,3.334,16.675,3.334,26.335v58.88c0,3.987-1.303,7.322-3.91,10.005c-2.607,2.684-5.904,4.025-9.889,4.025
		c-3.988,0-7.285-1.342-9.891-4.025c-2.607-2.683-3.91-6.018-3.91-10.005v-58.88c0-5.06-0.652-9.622-1.955-13.685
		c-1.305-4.063-3.643-7.322-7.016-9.775s-8.203-3.68-14.49-3.68c-6.133,0-11.309,1.227-15.523,3.68
		c-4.217,2.453-7.438,5.712-9.66,9.775c-2.225,4.063-3.336,8.625-3.336,13.685v58.88c0,3.987-1.303,7.322-3.91,10.005
		c-2.607,2.684-5.902,4.025-9.889,4.025c-3.988,0-7.285-1.342-9.891-4.025c-2.607-2.683-3.91-6.018-3.91-10.005v-94.99
		c0-3.987,1.303-7.322,3.91-10.005c2.605-2.683,5.902-4.025,9.891-4.025c3.986,0,7.281,1.342,9.889,4.025
		c2.607,2.683,3.91,6.018,3.91,10.005v9.89l-3.449-0.69c1.379-2.607,3.373-5.405,5.98-8.395c2.605-2.99,5.672-5.788,9.199-8.395
		c3.525-2.607,7.514-4.715,11.961-6.325C2483.906,126.655,2488.736,125.85,2493.949,125.85L2493.949,125.85z"/>
</g>
<g>
	<rect x="30" y="84.516" fill-rule="evenodd" clip-rule="evenodd" fill="#FFFFFF" width="168" height="168"/>
	<rect x="239" y="84.516" fill-rule="evenodd" clip-rule="evenodd" fill="#FFFFFF" width="168" height="168"/>
	<rect x="445.95" y="84.516" fill-rule="evenodd" clip-rule="evenodd" fill="#F71634" width="168" height="168"/>
</g>
</svg>
