<?xml version="1.0" encoding="utf-8"?>
<!-- Generator: Adobe Illustrator 16.0.0, SVG Export Plug-In . SVG Version: 6.00 Build 0)  -->
<!DOCTYPE svg PUBLIC "-//W3C//DTD SVG 1.1//EN" "http://www.w3.org/Graphics/SVG/1.1/DTD/svg11.dtd">
<svg version="1.1" id="Layer_1" xmlns="http://www.w3.org/2000/svg" xmlns:xlink="http://www.w3.org/1999/xlink" x="0px" y="0px"
	 width="2314.545px" height="167.67px" viewBox="0 0 2314.545 167.67" enable-background="new 0 0 2314.545 167.67"
	 xml:space="preserve">
<g>
	<g>
		<polygon fill-rule="evenodd" clip-rule="evenodd" fill="#F71634" points="385.039,28.17 277.039,28.17 277.039,136.17 
			385.039,136.17 385.039,28.17 		"/>
		<polygon fill-rule="evenodd" clip-rule="evenodd" fill="#FFFFFF" points="246.777,28.17 138.777,28.17 138.777,136.17 
			246.777,136.17 246.777,28.17 		"/>
		
			<polygon fill-rule="evenodd" clip-rule="evenodd" fill="#FFFFFF" stroke="#000000" stroke-width="0.24" stroke-linecap="round" stroke-linejoin="round" stroke-miterlimit="10" points="
			108.12,28.17 0.12,28.17 0.12,136.17 108.12,136.17 108.12,28.17 		"/>
	</g>
	<path fill="#FFFFFF" d="M530.206,40.48l-49.68,116.84c-1.074,2.912-2.722,5.175-4.945,6.784c-2.224,1.61-4.639,2.415-7.245,2.415
		c-4.14,0-7.207-1.149-9.2-3.449c-1.994-2.301-2.99-5.138-2.99-8.511c0-1.38,0.23-2.837,0.69-4.37l57.27-137.54
		c1.226-3.067,3.105-5.443,5.635-7.13s5.251-2.377,8.165-2.07c2.76,0,5.328,0.805,7.705,2.415c2.376,1.61,4.101,3.872,5.175,6.785
		l56.58,134.78c0.766,1.993,1.15,3.833,1.15,5.521c0,4.14-1.342,7.437-4.025,9.89c-2.684,2.453-5.635,3.68-8.855,3.68
		c-2.76,0-5.252-0.843-7.475-2.529c-2.224-1.688-3.949-3.987-5.175-6.9l-49.45-115.23L530.206,40.48L530.206,40.48z M487.656,129.26
		l12.65-26.45h62.1l4.37,26.45H487.656L487.656,129.26z"/>
	<path fill="#FFFFFF" d="M631.866,165.37c-3.987,0-7.284-1.342-9.89-4.025c-2.607-2.683-3.91-6.018-3.91-10.005V56.35
		c0-3.987,1.303-7.322,3.91-10.005c2.606-2.683,5.903-4.025,9.89-4.025c3.986,0,7.283,1.342,9.89,4.025
		c2.606,2.683,3.91,6.018,3.91,10.005v21.62l-1.61-15.41c1.686-3.68,3.871-6.938,6.555-9.775c2.683-2.837,5.711-5.213,9.085-7.13
		c3.373-1.917,6.976-3.335,10.81-4.255c3.833-0.92,7.666-1.38,11.5-1.38c4.6,0,8.471,1.303,11.615,3.91
		c3.143,2.607,4.715,5.673,4.715,9.2c0,5.06-1.304,8.702-3.91,10.925c-2.607,2.223-5.444,3.335-8.51,3.335
		c-2.914,0-5.559-0.537-7.935-1.61c-2.377-1.073-5.099-1.61-8.165-1.61c-2.76,0-5.559,0.652-8.395,1.955
		c-2.837,1.303-5.444,3.335-7.82,6.095c-2.377,2.76-4.294,6.172-5.75,10.235c-1.457,4.063-2.185,8.854-2.185,14.375v54.51
		c0,3.987-1.304,7.322-3.91,10.005C639.149,164.028,635.852,165.37,631.866,165.37L631.866,165.37z"/>
	<path fill="#FFFFFF" d="M751.236,40.02c8.74,0,16.368,0.92,22.885,2.76c6.516,1.84,11.576,4.408,15.18,7.705
		c3.603,3.297,5.405,7.245,5.405,11.845c0,3.067-0.92,5.942-2.76,8.625c-1.84,2.683-4.524,4.025-8.05,4.025
		c-2.454,0-4.485-0.345-6.095-1.035c-1.61-0.69-3.029-1.572-4.255-2.645c-1.227-1.073-2.684-2.07-4.37-2.99
		c-1.534-0.92-3.872-1.648-7.015-2.185c-3.144-0.537-5.482-0.805-7.015-0.805c-7.82,0-14.452,1.687-19.895,5.06
		c-5.444,3.373-9.622,7.935-12.535,13.685c-2.914,5.75-4.37,12.383-4.37,19.896c0,7.36,1.495,13.915,4.485,19.665
		c2.99,5.75,7.13,10.312,12.42,13.685c5.29,3.373,11.385,5.061,18.285,5.061c3.833,0,7.13-0.23,9.89-0.69s5.06-1.149,6.9-2.069
		c2.146-1.228,4.063-2.53,5.75-3.91c1.686-1.38,4.216-2.07,7.59-2.07c3.986,0,7.053,1.265,9.2,3.795
		c2.146,2.53,3.22,5.635,3.22,9.315c0,3.833-2.147,7.321-6.44,10.465c-4.294,3.143-9.929,5.673-16.905,7.59
		c-6.977,1.917-14.529,2.875-22.655,2.875c-12.114,0-22.617-2.798-31.51-8.395c-8.894-5.598-15.755-13.226-20.585-22.886
		s-7.245-20.47-7.245-32.43c0-12.573,2.568-23.652,7.705-33.235c5.136-9.583,12.266-17.097,21.39-22.54
		C728.964,42.742,739.429,40.02,751.236,40.02L751.236,40.02z"/>
	<path fill="#FFFFFF" d="M940.066,4.37c3.68,0,6.67,1.227,8.97,3.68c2.3,2.453,3.45,5.52,3.45,9.2v134.09
		c0,3.987-1.342,7.322-4.025,10.005c-2.684,2.684-6.019,4.025-10.005,4.025c-1.994,0-4.025-0.345-6.095-1.035
		s-3.642-1.648-4.715-2.875l-90.39-114.77l5.98-3.68v109.48c0,3.68-1.189,6.747-3.565,9.199c-2.377,2.453-5.482,3.681-9.315,3.681
		c-3.68,0-6.67-1.228-8.97-3.681c-2.3-2.452-3.45-5.52-3.45-9.199V18.4c0-3.987,1.341-7.322,4.025-10.005
		c2.683-2.683,6.018-4.025,10.005-4.025c2.146,0,4.37,0.422,6.67,1.265c2.3,0.843,3.986,2.108,5.06,3.795l87.63,111.78l-3.91,2.76
		V17.25c0-3.68,1.15-6.747,3.45-9.2S936.232,4.37,940.066,4.37L940.066,4.37z"/>
	<path fill="#FFFFFF" d="M1039.196,167.67c-13.034,0-24.342-2.722-33.925-8.165c-9.584-5.443-16.944-12.842-22.08-22.195
		c-5.137-9.353-7.705-19.933-7.705-31.739c0-13.801,2.798-25.568,8.396-35.306c5.596-9.737,12.918-17.212,21.965-22.425
		c9.046-5.213,18.63-7.82,28.75-7.82c7.82,0,15.218,1.61,22.195,4.83c6.976,3.22,13.147,7.628,18.515,13.225
		c5.366,5.597,9.621,12.075,12.765,19.435c3.143,7.36,4.715,15.18,4.715,23.46c-0.154,3.681-1.61,6.67-4.37,8.97
		c-2.76,2.301-5.98,3.45-9.66,3.45h-87.86l-6.9-23h84.41l-5.06,4.601v-6.21c-0.307-4.447-1.879-8.434-4.715-11.96
		c-2.837-3.527-6.364-6.325-10.58-8.396c-4.217-2.07-8.702-3.105-13.455-3.105c-4.6,0-8.894,0.613-12.88,1.84
		c-3.987,1.227-7.437,3.297-10.35,6.21c-2.914,2.913-5.214,6.823-6.9,11.729c-1.687,4.907-2.53,11.117-2.53,18.63
		c0,8.28,1.725,15.296,5.175,21.046c3.45,5.75,7.896,10.119,13.34,13.109c5.443,2.99,11.231,4.485,17.365,4.485
		c5.673,0,10.196-0.46,13.57-1.38c3.373-0.92,6.095-2.032,8.165-3.335c2.07-1.304,3.948-2.415,5.635-3.335
		c2.76-1.381,5.366-2.07,7.82-2.07c3.373,0,6.171,1.15,8.395,3.45c2.223,2.3,3.334,4.982,3.334,8.05c0,4.14-2.146,7.896-6.439,11.27
		c-3.987,3.373-9.584,6.325-16.79,8.855C1054.299,166.405,1046.862,167.67,1039.196,167.67L1039.196,167.67z"/>
	<path fill="#FFFFFF" d="M1109.806,44.62h54.509c3.681,0,6.746,1.227,9.2,3.68c2.453,2.453,3.681,5.52,3.681,9.2
		c0,3.527-1.228,6.478-3.681,8.855c-2.454,2.377-5.52,3.565-9.2,3.565h-54.509c-3.68,0-6.747-1.227-9.2-3.68
		c-2.454-2.453-3.68-5.52-3.68-9.2c0-3.527,1.226-6.478,3.68-8.855C1103.059,45.808,1106.126,44.62,1109.806,44.62L1109.806,44.62z
		 M1134.417,15.87c3.986,0,7.245,1.342,9.775,4.025c2.53,2.683,3.794,6.018,3.794,10.005v102.35c0,2.146,0.421,3.91,1.265,5.29
		c0.843,1.38,1.993,2.377,3.45,2.99c1.456,0.612,3.028,0.92,4.715,0.92c1.84,0,3.526-0.346,5.06-1.035
		c1.533-0.69,3.296-1.035,5.29-1.035c2.146,0,4.102,0.997,5.865,2.99c1.763,1.993,2.646,4.753,2.646,8.28
		c0,4.293-2.34,7.819-7.016,10.579c-4.677,2.761-9.699,4.141-15.064,4.141c-3.22,0-6.785-0.269-10.695-0.806
		c-3.91-0.536-7.59-1.84-11.041-3.909c-3.45-2.07-6.325-5.252-8.625-9.545c-2.3-4.293-3.45-10.197-3.45-17.71V29.9
		c0-3.987,1.341-7.322,4.025-10.005C1127.094,17.212,1130.429,15.87,1134.417,15.87L1134.417,15.87z"/>
	<path fill="#FFFFFF" d="M1274.256,151.34c0,3.987-1.457,7.322-4.37,10.005c-2.914,2.684-6.287,4.025-10.12,4.025
		c-4.294,0-7.744-1.342-10.35-4.025c-2.607-2.683-3.91-6.018-3.91-10.005V18.4c0-3.987,1.38-7.322,4.14-10.005
		s6.286-4.025,10.58-4.025c3.681,0,6.938,1.342,9.775,4.025c2.836,2.683,4.255,6.018,4.255,10.005V151.34L1274.256,151.34z"/>
	<path fill="#FFFFFF" d="M1364.646,40.02c11.346,0,19.971,2.377,25.875,7.13c5.903,4.753,9.966,11.078,12.19,18.975
		c2.223,7.897,3.335,16.675,3.335,26.335v58.88c0,3.987-1.304,7.322-3.91,10.005c-2.607,2.684-5.904,4.025-9.89,4.025
		c-3.987,0-7.284-1.342-9.891-4.025c-2.606-2.683-3.91-6.018-3.91-10.005V92.46c0-5.06-0.651-9.622-1.955-13.685
		c-1.304-4.063-3.642-7.322-7.015-9.775c-3.374-2.453-8.204-3.68-14.49-3.68c-6.134,0-11.309,1.227-15.524,3.68
		c-4.217,2.453-7.438,5.712-9.66,9.775c-2.224,4.063-3.335,8.625-3.335,13.685v58.88c0,3.987-1.304,7.322-3.91,10.005
		c-2.606,2.684-5.904,4.025-9.89,4.025c-3.987,0-7.284-1.342-9.891-4.025c-2.606-2.683-3.91-6.018-3.91-10.005V56.35
		c0-3.987,1.304-7.322,3.91-10.005c2.606-2.683,5.903-4.025,9.891-4.025c3.985,0,7.283,1.342,9.89,4.025
		c2.606,2.683,3.91,6.018,3.91,10.005v9.89l-3.45-0.69c1.38-2.607,3.373-5.405,5.98-8.395c2.605-2.99,5.673-5.788,9.199-8.395
		s7.514-4.715,11.961-6.325C1354.602,40.825,1359.432,40.02,1364.646,40.02L1364.646,40.02z"/>
	<path fill="#FFFFFF" d="M1496.206,40.02c11.346,0,19.971,2.377,25.875,7.13c5.902,4.753,9.966,11.078,12.189,18.975
		s3.335,16.675,3.335,26.335v58.88c0,3.987-1.304,7.322-3.91,10.005c-2.606,2.684-5.903,4.025-9.89,4.025
		c-3.987,0-7.284-1.342-9.89-4.025c-2.607-2.683-3.91-6.018-3.91-10.005V92.46c0-5.06-0.652-9.622-1.955-13.685
		c-1.305-4.063-3.643-7.322-7.016-9.775s-8.203-3.68-14.489-3.68c-6.134,0-11.31,1.227-15.525,3.68
		c-4.217,2.453-7.437,5.712-9.66,9.775c-2.224,4.063-3.335,8.625-3.335,13.685v58.88c0,3.987-1.304,7.322-3.91,10.005
		c-2.606,2.684-5.903,4.025-9.89,4.025c-3.987,0-7.284-1.342-9.89-4.025c-2.607-2.683-3.91-6.018-3.91-10.005V56.35
		c0-3.987,1.303-7.322,3.91-10.005c2.605-2.683,5.902-4.025,9.89-4.025c3.986,0,7.283,1.342,9.89,4.025
		c2.606,2.683,3.91,6.018,3.91,10.005v9.89l-3.449-0.69c1.38-2.607,3.373-5.405,5.979-8.395c2.606-2.99,5.673-5.788,9.2-8.395
		c3.525-2.607,7.513-4.715,11.96-6.325C1486.162,40.825,1490.992,40.02,1496.206,40.02L1496.206,40.02z"/>
	<path fill="#FFFFFF" d="M1680.206,103.96c0,12.573-2.8,23.652-8.396,33.235c-5.597,9.583-13.109,17.058-22.54,22.425
		c-9.43,5.367-19.972,8.05-31.625,8.05s-22.194-2.683-31.625-8.05c-9.43-5.367-16.943-12.842-22.54-22.425
		s-8.395-20.662-8.395-33.235s2.798-23.652,8.395-33.235c5.597-9.583,13.11-17.097,22.54-22.54
		c9.431-5.443,19.972-8.165,31.625-8.165s22.195,2.722,31.625,8.165c9.431,5.443,16.943,12.957,22.54,22.54
		C1677.406,80.308,1680.206,91.387,1680.206,103.96L1680.206,103.96z M1652.605,103.96c0-7.82-1.572-14.605-4.715-20.355
		c-3.145-5.75-7.36-10.234-12.65-13.455c-5.289-3.22-11.154-4.83-17.595-4.83c-6.439,0-12.305,1.61-17.595,4.83
		s-9.507,7.705-12.65,13.455s-4.715,12.535-4.715,20.355c0,7.667,1.571,14.375,4.715,20.125s7.36,10.235,12.65,13.455
		s11.155,4.83,17.595,4.83c6.44,0,12.306-1.61,17.595-4.83c5.29-3.22,9.506-7.705,12.65-13.455
		C1651.033,118.335,1652.605,111.627,1652.605,103.96L1652.605,103.96z"/>
	<path fill="#FFFFFF" d="M1701.826,42.32c2.912,0,5.596,0.728,8.05,2.185c2.452,1.457,4.293,3.642,5.52,6.555l33.811,77.28
		l-5.061,2.3l34.5-79.35c2.606-6.133,6.67-9.047,12.19-8.74c3.833,0,6.938,1.188,9.314,3.565c2.376,2.377,3.565,5.328,3.565,8.855
		c0,1.073-0.192,2.223-0.575,3.45c-0.384,1.227-0.805,2.377-1.265,3.45l-43.011,94.76c-2.453,5.521-6.363,8.433-11.729,8.74
		c-2.914,0.46-5.712-0.077-8.396-1.61s-4.715-3.91-6.095-7.13l-42.78-94.76c-0.307-0.767-0.651-1.763-1.034-2.99
		c-0.384-1.227-0.575-2.683-0.575-4.37c0-2.76,1.226-5.482,3.68-8.165C1694.389,43.662,1697.686,42.32,1701.826,42.32
		L1701.826,42.32z"/>
	<path fill="#FFFFFF" d="M1914.576,40.02c3.985,0,7.282,1.303,9.89,3.91c2.606,2.607,3.91,5.98,3.91,10.12v97.29
		c0,3.987-1.304,7.322-3.91,10.005c-2.607,2.684-5.904,4.025-9.89,4.025c-3.987,0-7.284-1.342-9.891-4.025
		c-2.606-2.683-3.91-6.018-3.91-10.005v-11.27l5.061,2.069c0,1.993-1.074,4.408-3.221,7.245s-5.06,5.635-8.739,8.396
		c-3.681,2.76-8.013,5.098-12.995,7.015c-4.984,1.917-10.389,2.875-16.215,2.875c-10.58,0-20.164-2.722-28.75-8.165
		c-8.587-5.443-15.372-12.957-20.355-22.54s-7.475-20.585-7.475-33.005c0-12.573,2.491-23.652,7.475-33.235
		c4.983-9.583,11.691-17.097,20.125-22.54c8.434-5.443,17.786-8.165,28.061-8.165c6.593,0,12.649,0.997,18.17,2.99
		c5.52,1.993,10.311,4.523,14.375,7.59c4.063,3.067,7.206,6.172,9.43,9.315c2.223,3.143,3.335,5.788,3.335,7.935l-8.28,2.99V54.05
		c0-3.987,1.304-7.322,3.91-10.005S1910.589,40.02,1914.576,40.02L1914.576,40.02z M1868.115,142.37
		c6.746,0,12.65-1.688,17.711-5.061c5.06-3.373,9.008-7.973,11.845-13.8c2.836-5.827,4.255-12.343,4.255-19.55
		c0-7.36-1.419-13.953-4.255-19.78c-2.837-5.827-6.785-10.427-11.845-13.8c-5.061-3.373-10.965-5.06-17.711-5.06
		c-6.594,0-12.42,1.687-17.479,5.06s-9.009,7.973-11.845,13.8c-2.837,5.827-4.255,12.42-4.255,19.78
		c0,7.207,1.418,13.723,4.255,19.55c2.836,5.827,6.785,10.427,11.845,13.8S1861.521,142.37,1868.115,142.37L1868.115,142.37z"/>
	<path fill="#FFFFFF" d="M1953.216,44.62h54.51c3.681,0,6.746,1.227,9.2,3.68c2.453,2.453,3.68,5.52,3.68,9.2
		c0,3.527-1.227,6.478-3.68,8.855c-2.454,2.377-5.52,3.565-9.2,3.565h-54.51c-3.681,0-6.747-1.227-9.2-3.68
		c-2.454-2.453-3.68-5.52-3.68-9.2c0-3.527,1.226-6.478,3.68-8.855C1946.469,45.808,1949.535,44.62,1953.216,44.62L1953.216,44.62z
		 M1977.826,15.87c3.985,0,7.244,1.342,9.774,4.025s3.795,6.018,3.795,10.005v102.35c0,2.146,0.421,3.91,1.265,5.29
		s1.994,2.377,3.451,2.99c1.455,0.612,3.027,0.92,4.715,0.92c1.84,0,3.525-0.346,5.06-1.035c1.533-0.69,3.296-1.035,5.29-1.035
		c2.146,0,4.102,0.997,5.865,2.99c1.763,1.993,2.645,4.753,2.645,8.28c0,4.293-2.339,7.819-7.016,10.579
		c-4.676,2.761-9.698,4.141-15.064,4.141c-3.22,0-6.785-0.269-10.695-0.806c-3.909-0.536-7.59-1.84-11.039-3.909
		c-3.45-2.07-6.325-5.252-8.625-9.545c-2.301-4.293-3.45-10.197-3.45-17.71V29.9c0-3.987,1.341-7.322,4.024-10.005
		S1973.839,15.87,1977.826,15.87L1977.826,15.87z"/>
	<path fill="#FFFFFF" d="M2050.506,151.34c0,3.987-1.305,7.322-3.91,10.005c-2.607,2.684-5.904,4.025-9.891,4.025
		s-7.283-1.342-9.89-4.025c-2.606-2.683-3.909-6.018-3.909-10.005V56.35c0-3.987,1.303-7.322,3.909-10.005
		c2.606-2.683,5.903-4.025,9.89-4.025s7.283,1.342,9.891,4.025c2.605,2.683,3.91,6.018,3.91,10.005V151.34L2050.506,151.34z
		 M2036.476,27.37c-5.214,0-8.894-0.843-11.04-2.53s-3.22-4.677-3.22-8.97V11.5c0-4.447,1.188-7.475,3.565-9.085
		c2.375-1.61,6.018-2.415,10.924-2.415c5.367,0,9.123,0.843,11.271,2.53c2.146,1.687,3.22,4.677,3.22,8.97v4.37
		c0,4.447-1.149,7.475-3.449,9.085C2045.445,26.565,2041.688,27.37,2036.476,27.37L2036.476,27.37z"/>
	<path fill="#FFFFFF" d="M2190.115,103.96c0,12.573-2.799,23.652-8.395,33.235c-5.598,9.583-13.109,17.058-22.54,22.425
		s-19.972,8.05-31.625,8.05s-22.194-2.683-31.625-8.05c-9.43-5.367-16.944-12.842-22.54-22.425
		c-5.597-9.583-8.395-20.662-8.395-33.235s2.798-23.652,8.395-33.235c5.596-9.583,13.11-17.097,22.54-22.54
		c9.431-5.443,19.972-8.165,31.625-8.165s22.194,2.722,31.625,8.165c9.431,5.443,16.942,12.957,22.54,22.54
		C2187.316,80.308,2190.115,91.387,2190.115,103.96L2190.115,103.96z M2162.516,103.96c0-7.82-1.572-14.605-4.715-20.355
		c-3.145-5.75-7.36-10.234-12.65-13.455c-5.289-3.22-11.154-4.83-17.595-4.83s-12.306,1.61-17.595,4.83
		c-5.29,3.22-9.507,7.705-12.65,13.455s-4.715,12.535-4.715,20.355c0,7.667,1.571,14.375,4.715,20.125s7.36,10.235,12.65,13.455
		c5.289,3.22,11.154,4.83,17.595,4.83s12.306-1.61,17.595-4.83c5.29-3.22,9.506-7.705,12.65-13.455
		C2160.943,118.335,2162.516,111.627,2162.516,103.96L2162.516,103.96z"/>
	<path fill="#FFFFFF" d="M2273.146,40.02c11.347,0,19.972,2.377,25.875,7.13s9.966,11.078,12.19,18.975
		c2.223,7.897,3.334,16.675,3.334,26.335v58.88c0,3.987-1.303,7.322-3.909,10.005c-2.606,2.684-5.904,4.025-9.89,4.025
		c-3.987,0-7.285-1.342-9.891-4.025c-2.607-2.683-3.91-6.018-3.91-10.005V92.46c0-5.06-0.651-9.622-1.955-13.685
		c-1.304-4.063-3.642-7.322-7.015-9.775c-3.374-2.453-8.204-3.68-14.489-3.68c-6.135,0-11.31,1.227-15.525,3.68
		c-4.217,2.453-7.438,5.712-9.66,9.775c-2.225,4.063-3.335,8.625-3.335,13.685v58.88c0,3.987-1.304,7.322-3.91,10.005
		c-2.606,2.684-5.903,4.025-9.89,4.025c-3.987,0-7.284-1.342-9.891-4.025c-2.606-2.683-3.91-6.018-3.91-10.005V56.35
		c0-3.987,1.304-7.322,3.91-10.005c2.606-2.683,5.903-4.025,9.891-4.025c3.986,0,7.283,1.342,9.89,4.025
		c2.606,2.683,3.91,6.018,3.91,10.005v9.89l-3.45-0.69c1.381-2.607,3.373-5.405,5.98-8.395c2.605-2.99,5.673-5.788,9.199-8.395
		s7.514-4.715,11.961-6.325C2263.102,40.825,2267.932,40.02,2273.146,40.02L2273.146,40.02z"/>
</g>
</svg>
